<svg width="36" height="36" viewBox="0 0 36 36" fill="none" xmlns="http://www.w3.org/2000/svg">
<mask id="path-1-inside-1_284_4747" fill="white">
<path fill-rule="evenodd" clip-rule="evenodd" d="M16.4619 0.0124163C13.9952 0.262826 11.9166 0.861845 9.7996 1.93248C5.62163 4.04534 2.43467 7.72779 0.889749 12.2276C0.602998 13.0629 0.289647 14.3583 0.132459 15.3585C0.0180962 16.086 0 16.4444 0 17.9775C0 19.5107 0.0180962 19.8691 0.132459 20.5966C0.451902 22.6291 1.00755 24.3537 1.92595 26.1632C4.09058 30.4281 7.94555 33.6928 12.5412 35.1529C12.9062 35.2689 13.3477 35.3969 13.5226 35.4373L13.8404 35.511L14.0956 35.3005C14.5338 34.9391 16.1234 33.3328 16.7599 32.6084C19.8322 29.1111 21.2777 25.7225 20.959 22.7642C20.8799 22.0299 20.7746 21.7811 20.7746 22.3286C20.7746 22.5161 20.7229 22.9358 20.6597 23.2611C20.0376 26.4648 17.5894 29.275 14.2301 30.6414C12.732 31.2507 11.2868 31.5603 9.39946 31.6761L8.73071 31.7171L7.99411 31.1636C4.66873 28.6648 2.35385 24.8663 1.65802 20.7666C0.951093 16.6015 1.86611 12.2857 4.18968 8.82577C4.82851 7.87452 5.41063 7.17351 6.29351 6.29217C8.89791 3.69252 11.9816 2.14436 15.6509 1.59447C16.4227 1.47881 16.8256 1.45485 18 1.45485C19.1744 1.45485 19.5773 1.47881 20.3491 1.59447C24.0184 2.14436 27.1021 3.69252 29.7065 6.29217C30.5894 7.17351 31.1715 7.87452 31.8103 8.82577C35.4959 14.3137 35.4945 21.6343 31.8069 27.1216C30.1632 29.5675 28.0201 31.4659 25.4318 32.7687C24.949 33.0116 24.5345 33.2105 24.5106 33.2105C24.4867 33.2105 24.6639 32.7837 24.9045 32.2622C26.3377 29.1548 27.0728 26.5651 27.1517 24.3463L27.1853 23.3996L27.3729 23.5034C27.7105 23.6902 28.4078 24.4312 28.5611 24.7661C28.6406 24.94 28.7234 25.0822 28.7451 25.0822C28.7668 25.0822 28.8145 24.9107 28.851 24.701C29.0654 23.4722 28.7474 22.2534 27.9991 21.4361C27.7146 21.1253 27.7133 21.1221 27.8638 21.0933C28.2658 21.0166 28.9792 21.3019 29.4357 21.722C29.7672 22.0269 29.7782 21.955 29.5204 21.1675C29.2524 20.3489 28.8908 19.6986 28.4595 19.2595C28.0998 18.8933 27.5813 18.5837 27.3191 18.5784C27.1305 18.5746 27.3303 18.4828 27.6238 18.4384C28.1905 18.3527 28.9637 18.6171 29.4459 19.0616C29.5866 19.1912 29.7017 19.2686 29.7017 19.2333C29.7017 19.0791 29.3126 18.0314 29.0697 17.5313C28.3878 16.1275 27.5829 15.3173 26.6191 15.0643L26.2937 14.9789L26.6255 14.8303C27.0044 14.6606 27.4902 14.5456 27.8284 14.5456C28.1437 14.5456 28.7768 14.749 29.0574 14.9404L29.2877 15.0974L29.1943 14.9171C29.007 14.5557 28.3639 13.7648 27.93 13.3624C27.123 12.6139 26.3648 12.2633 25.4493 12.2153C24.963 12.1898 24.8184 12.2101 24.0619 12.41C22.9665 12.6994 22.1971 12.7536 21.7822 12.5703C21.3782 12.392 21.2451 12.1536 21.2713 11.6556C21.3008 11.097 21.497 10.7236 22.2476 9.79784C23.3618 8.42369 23.7047 7.8552 23.9153 7.03358C24.0501 6.50723 24.0726 6.00888 23.9528 6.20215C23.1308 7.52832 22.4256 8.41183 21.7675 8.94028C21.1405 9.44381 20.7551 9.61083 20.0861 9.66905C18.9537 9.76762 17.7411 10.4275 17.1892 11.2456L16.9906 11.5399L16.9525 11.3494C16.7931 10.5539 17.0577 9.54653 17.5722 8.98923C17.808 8.73389 18.4371 8.34409 18.6133 8.34409C18.8016 8.34409 19.576 7.91486 19.811 7.68035C20.1021 7.38978 20.3833 6.82953 20.4718 6.36376C20.5384 6.01346 20.5545 5.43503 20.4992 5.37988C20.4805 5.36115 20.3425 5.58013 20.1927 5.86655C19.8933 6.43896 19.7206 6.69201 19.3932 7.03834C19.0791 7.37063 18.8405 7.49894 18.4106 7.56685C17.6009 7.69468 16.3559 8.45759 15.5676 9.30888C14.6194 10.3328 14.225 11.4403 14.3859 12.6269L14.4564 13.1467L14.0372 14.0117C13.2385 15.6594 12.4471 16.7587 11.4352 17.626L11.1134 17.9019L11.2392 18.1481C11.4167 18.4953 11.4086 18.9806 11.2191 19.3493C10.8035 20.1583 9.60381 20.9031 7.90134 21.4092C7.43943 21.5465 6.93728 21.7218 6.78546 21.7986C6.53164 21.9271 6.24501 22.1712 6.3037 22.2088C7.0292 22.674 7.31137 22.9509 7.55813 23.44C7.7006 23.7222 7.72708 24.0588 7.65681 24.6939C7.60156 25.1933 7.66568 25.3629 8.03573 25.6966C8.76696 26.356 10.327 26.4694 11.4915 25.9478L11.8572 25.784L11.491 25.6516C11.0705 25.4996 10.9687 25.4273 10.8484 25.1949C10.6178 24.7499 10.9017 24.0955 11.4849 23.7279C11.896 23.469 12.2612 23.3845 13.1746 23.3372C13.8818 23.3005 14.1402 23.2611 14.5248 23.1311C14.7864 23.0426 15.0579 22.9294 15.128 22.8794C15.2465 22.7949 15.2342 22.7912 14.9539 22.827C14.2841 22.9126 13.1954 22.6251 12.8668 22.2759L12.7303 22.1309L13.0851 22.2528C13.2802 22.3198 13.5801 22.3911 13.7515 22.4112L14.0631 22.4477L14.3274 21.9525C14.6516 21.3451 15.1325 20.8028 15.5076 20.6216C15.7498 20.5045 15.9253 20.48 16.766 20.446C17.706 20.408 17.7549 20.3997 18.0642 20.2253C18.4231 20.0229 18.5062 19.9042 18.2891 19.9042C17.7866 19.9042 16.8427 19.5058 16.6681 19.22C16.4644 18.8864 16.5113 18.6572 16.8502 18.3312C17.394 17.8079 18.0975 17.7146 18.8357 18.0677C20.1664 18.7043 21.4075 19.9107 22.0568 21.1987C22.8826 22.8369 23.0609 25.2659 22.5298 27.6447C21.9028 30.4533 20.2896 33.5783 18.447 35.5536L18.0305 36L18.9351 35.9611C22.0613 35.8268 25.2185 34.7988 27.8921 33.0447C31.2839 30.8195 33.7828 27.5939 35.1103 23.7275C35.397 22.8922 35.7104 21.5968 35.8675 20.5966C35.9819 19.8691 36 19.5107 36 17.9775C36 16.4444 35.9819 16.086 35.8675 15.3585C35.5481 13.326 34.9925 11.6014 34.0741 9.79194C31.9574 5.6215 28.2683 2.44029 23.7604 0.898152C22.9251 0.61246 21.6226 0.298349 20.6542 0.149151C20.0213 0.0516122 19.49 0.0196405 18.2714 0.00579237C17.4089 -0.00402171 16.5946 -0.00107051 16.4619 0.0124163ZM15.244 16.0051C14.5606 16.5502 13.6645 17.4682 13.3395 17.9563C12.9323 18.5678 12.9259 18.597 13.2117 18.5477C13.7932 18.4474 14.2352 18.0986 14.5663 17.4785C14.6755 17.2741 14.9871 16.7745 15.259 16.3682C15.5308 15.9618 15.7447 15.6294 15.7342 15.6294C15.7237 15.6294 15.5031 15.7985 15.244 16.0051Z"/>
</mask>
<path fill-rule="evenodd" clip-rule="evenodd" d="M16.4619 0.0124163C13.9952 0.262826 11.9166 0.861845 9.7996 1.93248C5.62163 4.04534 2.43467 7.72779 0.889749 12.2276C0.602998 13.0629 0.289647 14.3583 0.132459 15.3585C0.0180962 16.086 0 16.4444 0 17.9775C0 19.5107 0.0180962 19.8691 0.132459 20.5966C0.451902 22.6291 1.00755 24.3537 1.92595 26.1632C4.09058 30.4281 7.94555 33.6928 12.5412 35.1529C12.9062 35.2689 13.3477 35.3969 13.5226 35.4373L13.8404 35.511L14.0956 35.3005C14.5338 34.9391 16.1234 33.3328 16.7599 32.6084C19.8322 29.1111 21.2777 25.7225 20.959 22.7642C20.8799 22.0299 20.7746 21.7811 20.7746 22.3286C20.7746 22.5161 20.7229 22.9358 20.6597 23.2611C20.0376 26.4648 17.5894 29.275 14.2301 30.6414C12.732 31.2507 11.2868 31.5603 9.39946 31.6761L8.73071 31.7171L7.99411 31.1636C4.66873 28.6648 2.35385 24.8663 1.65802 20.7666C0.951093 16.6015 1.86611 12.2857 4.18968 8.82577C4.82851 7.87452 5.41063 7.17351 6.29351 6.29217C8.89791 3.69252 11.9816 2.14436 15.6509 1.59447C16.4227 1.47881 16.8256 1.45485 18 1.45485C19.1744 1.45485 19.5773 1.47881 20.3491 1.59447C24.0184 2.14436 27.1021 3.69252 29.7065 6.29217C30.5894 7.17351 31.1715 7.87452 31.8103 8.82577C35.4959 14.3137 35.4945 21.6343 31.8069 27.1216C30.1632 29.5675 28.0201 31.4659 25.4318 32.7687C24.949 33.0116 24.5345 33.2105 24.5106 33.2105C24.4867 33.2105 24.6639 32.7837 24.9045 32.2622C26.3377 29.1548 27.0728 26.5651 27.1517 24.3463L27.1853 23.3996L27.3729 23.5034C27.7105 23.6902 28.4078 24.4312 28.5611 24.7661C28.6406 24.94 28.7234 25.0822 28.7451 25.0822C28.7668 25.0822 28.8145 24.9107 28.851 24.701C29.0654 23.4722 28.7474 22.2534 27.9991 21.4361C27.7146 21.1253 27.7133 21.1221 27.8638 21.0933C28.2658 21.0166 28.9792 21.3019 29.4357 21.722C29.7672 22.0269 29.7782 21.955 29.5204 21.1675C29.2524 20.3489 28.8908 19.6986 28.4595 19.2595C28.0998 18.8933 27.5813 18.5837 27.3191 18.5784C27.1305 18.5746 27.3303 18.4828 27.6238 18.4384C28.1905 18.3527 28.9637 18.6171 29.4459 19.0616C29.5866 19.1912 29.7017 19.2686 29.7017 19.2333C29.7017 19.0791 29.3126 18.0314 29.0697 17.5313C28.3878 16.1275 27.5829 15.3173 26.6191 15.0643L26.2937 14.9789L26.6255 14.8303C27.0044 14.6606 27.4902 14.5456 27.8284 14.5456C28.1437 14.5456 28.7768 14.749 29.0574 14.9404L29.2877 15.0974L29.1943 14.9171C29.007 14.5557 28.3639 13.7648 27.93 13.3624C27.123 12.6139 26.3648 12.2633 25.4493 12.2153C24.963 12.1898 24.8184 12.2101 24.0619 12.41C22.9665 12.6994 22.1971 12.7536 21.7822 12.5703C21.3782 12.392 21.2451 12.1536 21.2713 11.6556C21.3008 11.097 21.497 10.7236 22.2476 9.79784C23.3618 8.42369 23.7047 7.8552 23.9153 7.03358C24.0501 6.50723 24.0726 6.00888 23.9528 6.20215C23.1308 7.52832 22.4256 8.41183 21.7675 8.94028C21.1405 9.44381 20.7551 9.61083 20.0861 9.66905C18.9537 9.76762 17.7411 10.4275 17.1892 11.2456L16.9906 11.5399L16.9525 11.3494C16.7931 10.5539 17.0577 9.54653 17.5722 8.98923C17.808 8.73389 18.4371 8.34409 18.6133 8.34409C18.8016 8.34409 19.576 7.91486 19.811 7.68035C20.1021 7.38978 20.3833 6.82953 20.4718 6.36376C20.5384 6.01346 20.5545 5.43503 20.4992 5.37988C20.4805 5.36115 20.3425 5.58013 20.1927 5.86655C19.8933 6.43896 19.7206 6.69201 19.3932 7.03834C19.0791 7.37063 18.8405 7.49894 18.4106 7.56685C17.6009 7.69468 16.3559 8.45759 15.5676 9.30888C14.6194 10.3328 14.225 11.4403 14.3859 12.6269L14.4564 13.1467L14.0372 14.0117C13.2385 15.6594 12.4471 16.7587 11.4352 17.626L11.1134 17.9019L11.2392 18.1481C11.4167 18.4953 11.4086 18.9806 11.2191 19.3493C10.8035 20.1583 9.60381 20.9031 7.90134 21.4092C7.43943 21.5465 6.93728 21.7218 6.78546 21.7986C6.53164 21.9271 6.24501 22.1712 6.3037 22.2088C7.0292 22.674 7.31137 22.9509 7.55813 23.44C7.7006 23.7222 7.72708 24.0588 7.65681 24.6939C7.60156 25.1933 7.66568 25.3629 8.03573 25.6966C8.76696 26.356 10.327 26.4694 11.4915 25.9478L11.8572 25.784L11.491 25.6516C11.0705 25.4996 10.9687 25.4273 10.8484 25.1949C10.6178 24.7499 10.9017 24.0955 11.4849 23.7279C11.896 23.469 12.2612 23.3845 13.1746 23.3372C13.8818 23.3005 14.1402 23.2611 14.5248 23.1311C14.7864 23.0426 15.0579 22.9294 15.128 22.8794C15.2465 22.7949 15.2342 22.7912 14.9539 22.827C14.2841 22.9126 13.1954 22.6251 12.8668 22.2759L12.7303 22.1309L13.0851 22.2528C13.2802 22.3198 13.5801 22.3911 13.7515 22.4112L14.0631 22.4477L14.3274 21.9525C14.6516 21.3451 15.1325 20.8028 15.5076 20.6216C15.7498 20.5045 15.9253 20.48 16.766 20.446C17.706 20.408 17.7549 20.3997 18.0642 20.2253C18.4231 20.0229 18.5062 19.9042 18.2891 19.9042C17.7866 19.9042 16.8427 19.5058 16.6681 19.22C16.4644 18.8864 16.5113 18.6572 16.8502 18.3312C17.394 17.8079 18.0975 17.7146 18.8357 18.0677C20.1664 18.7043 21.4075 19.9107 22.0568 21.1987C22.8826 22.8369 23.0609 25.2659 22.5298 27.6447C21.9028 30.4533 20.2896 33.5783 18.447 35.5536L18.0305 36L18.9351 35.9611C22.0613 35.8268 25.2185 34.7988 27.8921 33.0447C31.2839 30.8195 33.7828 27.5939 35.1103 23.7275C35.397 22.8922 35.7104 21.5968 35.8675 20.5966C35.9819 19.8691 36 19.5107 36 17.9775C36 16.4444 35.9819 16.086 35.8675 15.3585C35.5481 13.326 34.9925 11.6014 34.0741 9.79194C31.9574 5.6215 28.2683 2.44029 23.7604 0.898152C22.9251 0.61246 21.6226 0.298349 20.6542 0.149151C20.0213 0.0516122 19.49 0.0196405 18.2714 0.00579237C17.4089 -0.00402171 16.5946 -0.00107051 16.4619 0.0124163ZM15.244 16.0051C14.5606 16.5502 13.6645 17.4682 13.3395 17.9563C12.9323 18.5678 12.9259 18.597 13.2117 18.5477C13.7932 18.4474 14.2352 18.0986 14.5663 17.4785C14.6755 17.2741 14.9871 16.7745 15.259 16.3682C15.5308 15.9618 15.7447 15.6294 15.7342 15.6294C15.7237 15.6294 15.5031 15.7985 15.244 16.0051Z" fill="#FFF72E" stroke="#FFF72E" stroke-width="10" mask="url(#path-1-inside-1_284_4747)"/>
</svg>
