<svg width="33" height="32" viewBox="0 0 33 32" fill="none" xmlns="http://www.w3.org/2000/svg">
<g clip-path="url(#clip0_284_5484)">
<path d="M19.841 32C20.911 32 21.844 31.067 21.844 29.997V25.3192H23.1815C23.984 25.3192 24.5189 24.7841 24.5189 23.9817V10.6211H8.48242V23.9818C8.48242 24.7843 9.01739 25.3193 9.81985 25.3193H11.1574V29.9971C11.1574 31.0671 12.0902 32.0001 13.1604 32.0001C14.2302 32.0001 15.1632 31.0671 15.1632 29.9971V25.3193H17.8381V29.9971C17.838 31.067 18.7711 32 19.841 32Z" fill="white"/>
<path d="M27.8585 23.9818C28.9284 23.9818 29.8612 23.0489 29.8612 21.9788V12.6232C29.8612 11.559 28.9284 10.6211 27.8585 10.6211C26.7884 10.6211 25.8555 11.559 25.8555 12.6232V21.9788C25.8555 23.0488 26.7883 23.9818 27.8585 23.9818Z" fill="white"/>
<path d="M5.14146 23.9818C6.21151 23.9818 7.14445 23.0489 7.14445 21.9788V12.6232C7.14445 11.559 6.21161 10.6211 5.14146 10.6211C4.07151 10.6211 3.13867 11.559 3.13867 12.6232V21.9788C3.13867 23.0488 4.07151 23.9818 5.14146 23.9818Z" fill="white"/>
<path d="M22.9139 0.201816C22.6465 -0.067272 22.2484 -0.067272 21.981 0.201816L20.1872 1.98965L20.1045 2.0723C19.0408 1.53967 17.8483 1.27368 16.5202 1.27112C16.5137 1.27112 16.5073 1.27091 16.5008 1.27091H16.5006C16.4939 1.27091 16.4877 1.27112 16.481 1.27112C15.153 1.27368 13.9605 1.53967 12.897 2.0723L12.814 1.98965L11.0203 0.201816C10.7527 -0.067272 10.3548 -0.067272 10.0874 0.201816C9.81985 0.469409 9.81985 0.866527 10.0874 1.13391L11.8226 2.86942C11.2635 3.24272 10.7565 3.69953 10.3156 4.22201C9.26011 5.47316 8.58685 7.10147 8.49427 8.8657C8.49342 8.88407 8.49161 8.90222 8.49075 8.92059C8.48509 9.04071 8.48242 9.16148 8.48242 9.28268H24.5189C24.5189 9.16148 24.516 9.04071 24.5106 8.92059C24.5097 8.90222 24.5079 8.88407 24.5068 8.8657C24.4145 7.10147 23.741 5.47306 22.6855 4.22212C22.2448 3.69964 21.7376 3.24283 21.1785 2.86952L22.9139 1.13401C23.1815 0.866527 23.1815 0.469409 22.9139 0.201816ZM13.1578 6.94749C12.6045 6.94749 12.1559 6.4989 12.1559 5.94556C12.1559 5.39222 12.6045 4.94364 13.1578 4.94364C13.7112 4.94364 14.1598 5.39222 14.1598 5.94556C14.1598 6.4989 13.7112 6.94749 13.1578 6.94749ZM19.8435 6.94749C19.2901 6.94749 18.8416 6.4989 18.8416 5.94556C18.8416 5.39222 19.2901 4.94364 19.8435 4.94364C20.3968 4.94364 20.8454 5.39222 20.8454 5.94556C20.8454 6.4989 20.3968 6.94749 19.8435 6.94749Z" fill="white"/>
</g>
<defs>
<clipPath id="clip0_284_5484">
<rect width="32" height="32" fill="white" transform="translate(0.5)"/>
</clipPath>
</defs>
</svg>
