<svg width="42" height="42" viewBox="0 0 42 42" fill="none" xmlns="http://www.w3.org/2000/svg">
<g clip-path="url(#clip0_284_5027)">
<rect width="42" height="42" rx="8" fill="#2D0D0D"/>
<path d="M33.2522 0H8.74781C3.91653 0 0 3.91653 0 8.74781V33.2522C0 38.0835 3.91653 42 8.74781 42H33.2522C38.0835 42 42 38.0835 42 33.2522V8.74781C42 3.91653 38.0835 0 33.2522 0Z" fill="#2D0D0D"/>
<path d="M18.7441 35.9831H23.2559V31.8282H18.7441V35.9831ZM21 6.01709L13.2891 11.1563V16.2997L18.7474 12.6608V22.8581H23.2591V12.6641L28.7109 16.303V11.1563L21 6.01709ZM18.7441 29.4206H23.2559V25.2657H18.7441V29.4206Z" fill="#FFF72E"/>
</g>
<defs>
<clipPath id="clip0_284_5027">
<rect width="42" height="42" rx="8" fill="white"/>
</clipPath>
</defs>
</svg>
