<svg width="120" height="81" viewBox="0 0 120 81" fill="none" xmlns="http://www.w3.org/2000/svg">
<g filter="url(#filter0_dd_454_756)">
<rect x="4" y="7" width="112" height="66" rx="6" fill="white"/>
<rect x="4.5" y="7.5" width="111" height="65" rx="5.5" stroke="#130404"/>
</g>
<path fill-rule="evenodd" clip-rule="evenodd" d="M59.16 33.6348C59.72 33.9111 60.44 33.398 60.32 35.1743L60.16 37.7006C60.16 38.2533 60.08 38.4506 60.08 38.9243C60.08 39.2796 60.04 39.8717 59.96 40.227C59.84 41.2928 59.96 41.6085 58.76 41.727V42.0428C59.04 42.2007 61.16 42.1217 61.64 42.1217C61.92 42.1217 61.68 42.1217 61.88 42.0428C61.84 41.6085 61.68 41.727 61.24 41.648C60.84 41.5691 60.76 41.5296 60.72 41.1743C60.56 40.3848 60.84 36.319 60.84 35.2532C61.08 35.4901 61.16 35.7664 61.28 36.0822C61.44 36.398 61.52 36.5954 61.68 36.9111C61.84 37.2269 61.92 37.4638 62.04 37.7796C62.24 38.0954 62.32 38.2927 62.48 38.648C62.92 39.6743 63.84 41.1743 64.08 42.2007C64.56 42.1612 64.36 42.2007 64.68 41.4901C65.2 40.3848 65.52 39.8717 66 38.8848L67.72 35.4506C67.8 35.2927 67.76 35.4111 67.8 35.3322C67.8 36.1217 67.88 36.5954 67.88 37.3848C67.88 38.2138 68.04 40.9375 67.72 41.5691C67.48 41.6085 67.08 41.727 66.8 41.727V42.1217H70C70.28 42.1217 70.24 41.9638 70.24 41.727C70 41.727 69.76 41.6875 69.56 41.6085C68.96 41.4506 69.08 40.5427 69.08 39.5559C69.08 38.9243 69 38.569 69 38.0164V34.3848C69 33.9901 69.2 33.7927 69.56 33.7532C70.16 33.6348 70.32 33.8717 70.16 33.2401C69.72 33.319 68.28 33.4374 67.88 33.2401C67.84 33.7927 67.48 34.5822 67.24 35.0559C66.96 35.648 66.68 36.1611 66.4 36.7533L64.52 40.1875C64.28 39.1612 61.48 34.8585 61.48 33.2401C61.08 33.4374 59.64 33.319 59.2 33.2401C59.16 33.398 59.16 33.398 59.16 33.6348ZM94.52 34.4638C94.52 38.4112 100 37.9769 100 34.8585C100 33.9111 100 33.3585 99.12 32.569C98.24 31.7795 96.72 31.6216 95.72 32.3322C95.04 32.8453 94.52 33.5559 94.52 34.4638ZM76.16 37.1085V37.3848C76.52 37.5033 76.72 37.7796 76.72 38.2533C76.72 38.7269 76.8 41.0954 76.6 41.4506C76.48 41.6875 76.12 41.6875 75.88 41.727V42.1217H78.36C78.64 42.1217 78.4 42.1217 78.6 42.0428C78.56 41.6085 78.28 41.648 77.88 41.5691C77.72 40.8585 77.8 39.0822 77.8 38.2533C77.8 37.3454 79.4 36.9506 80.08 37.819C80.44 38.2927 80.36 40.8191 80.24 41.3322C80.16 41.5691 80.08 41.6875 79.44 41.727V42.0428C79.76 42.2007 81.72 42.1217 82.2 42.1217V41.727C81.08 41.6085 81.32 41.2138 81.32 38.9243C81.32 37.7796 81.4 36.6348 79.68 36.6348C79.16 36.6348 78.64 36.8322 78.24 37.069C78.04 37.1875 78.04 37.1875 77.8 37.2269V36.4769C77.28 36.4769 76.72 36.9506 76.16 37.1085ZM21.56 33.7138C22.12 33.9506 22.72 33.6348 22.72 34.4638L22.8 37.8585H23.92V34.2269C23.92 33.6743 24.2 33.7927 24.76 33.7927C26.92 33.7927 27.36 36.6743 25.8 37.6611C24.52 38.4506 21.4 37.9375 20 37.9375L20.32 38.0559C22.68 38.6085 28.04 39.1612 28.04 35.7664C28.04 34.4243 27.08 33.5953 25.72 33.3585C24.48 33.1217 23.56 33.319 22.4 33.319C21.92 33.319 21.6 33.2401 21.56 33.7138ZM37.72 36.7927C37.56 36.8322 37.32 36.9506 37.16 37.0296C36.92 37.1875 36.96 37.1875 37.04 37.4638C38.08 37.4638 37.72 37.3848 37.72 37.9375C37.72 38.3322 37.84 41.3717 37.64 41.5691C37.24 41.7664 36.92 41.5296 36.88 42.0428C37.2 42.1612 38.68 42.0822 39.32 42.1217C39.84 42.1217 39.76 42.2007 39.92 41.8849C39.52 41.3322 38.84 42.1612 38.84 40.7796C38.84 36.0822 38.48 37.898 40.64 37.3848C40.76 36.9111 40.72 37.2664 40.64 36.7927C38.96 36.7927 38.84 36.9901 38.84 36.319C38.84 35.2532 38.96 32.6874 40.44 33.2795C40.84 33.4374 41.04 33.9506 41.4 33.9506C41.88 33.9506 42.12 33.5559 41.96 33.1611C41.56 32.2927 38.48 32.0559 37.92 35.1743C37.84 35.6085 37.72 36.3585 37.72 36.7927Z" fill="#F00F0F"/>
<path fill-rule="evenodd" clip-rule="evenodd" d="M72.8799 37.1087C74.9999 37.1087 75.0799 41.8061 73.1199 41.8061C71.3599 41.8061 70.9999 39.0824 71.6799 37.8982C71.8799 37.5035 72.3199 37.1087 72.8799 37.1087ZM70.1599 39.2403V39.7929C70.1599 42.9903 75.7999 43.3061 75.7999 39.3982C75.7999 35.5692 70.1599 35.9245 70.1599 39.2403ZM87.2799 37.1877C87.9199 37.2271 88.0799 37.385 88.3199 37.8982L89.2799 40.5035C89.8399 41.964 89.8799 42.1614 88.9999 43.6614C88.7999 43.9772 88.7599 44.1745 88.2799 44.1745C87.7199 44.214 87.5999 44.2535 87.5999 44.8061C87.5999 45.3193 87.9199 45.3588 88.2799 45.3588C88.9999 45.3588 89.3199 44.293 89.7199 43.4245L91.8799 38.9245C92.3199 38.0561 92.5199 37.2271 93.4399 37.1877V36.7929H90.9999V37.1877C91.2799 37.1877 91.5599 37.2666 91.7999 37.3061C91.7999 37.7008 91.3599 38.6877 91.1999 39.0429C91.0399 39.3587 90.5999 40.5035 90.3999 40.6219L89.7999 39.0429C89.6799 38.6482 89.3199 37.7008 89.2799 37.3061C90.0799 37.1482 89.9199 37.1877 89.9199 36.7929H87.5199C87.2399 36.7929 87.2799 36.9113 87.2799 37.1877ZM42.1999 38.2535C40.8399 38.2535 42.5199 37.1087 43.1199 37.1087C43.7599 37.1087 44.0799 37.4245 44.0799 37.9377C44.0799 38.2929 43.5999 38.135 43.2399 38.1745C42.9199 38.214 42.5999 38.2535 42.1999 38.2535ZM40.5599 39.4771C40.5599 42.5561 43.3599 42.6351 44.4799 41.8456C44.8399 41.6087 45.2399 41.214 45.1599 40.7798C44.2799 40.8193 45.0399 41.4114 43.4399 41.4114C42.1199 41.4114 41.3199 39.7535 41.5599 38.7271C42.6399 38.7271 44.2399 38.8456 45.1599 38.6482C45.1599 37.8587 45.1599 37.6219 44.7599 37.1877C43.8799 36.2798 42.0799 36.5561 41.2799 37.5035C40.8799 37.9771 40.5599 38.6482 40.5599 39.4771ZM83.9999 38.2535H83.5199C83.5199 37.8192 83.7199 37.6613 83.9599 37.464C84.6399 36.9113 85.8799 36.9113 85.8799 37.9377C85.8799 38.2929 85.3999 38.135 85.0399 38.1745C84.7199 38.214 84.3999 38.2535 83.9999 38.2535ZM82.3599 39.4771C82.3599 40.4245 82.5199 41.1351 83.1999 41.7272C84.0799 42.4377 85.5199 42.3982 86.3599 41.8061C86.4399 41.7272 87.4799 40.7798 86.7999 40.7798C86.2799 40.7798 86.7199 41.4114 85.2399 41.4114C84.0799 41.4114 83.4399 40.2272 83.2799 39.1614C83.1999 38.5298 83.4799 38.7271 84.9199 38.7271C85.5999 38.7271 86.3999 38.7666 86.9599 38.6482C86.9599 38.2929 87.1599 37.8587 86.5999 37.2271C85.7199 36.2403 83.8799 36.5561 83.0799 37.5035C82.6799 37.9377 82.3599 38.6877 82.3599 39.4771ZM28.8399 38.2535C28.9199 36.9903 31.2399 36.635 31.2399 37.8587C31.2399 38.3719 29.3599 38.2535 28.8399 38.2535ZM27.7199 39.2403C27.7199 40.1087 27.6799 40.9377 28.4799 41.6482C29.4799 42.5561 31.3599 42.4772 32.1599 41.3719C32.4399 40.9377 32.3599 40.5429 31.8799 40.9772C30.4799 42.2008 28.6799 40.8587 28.6799 38.9245C28.6799 38.5692 29.7999 38.7271 30.5599 38.7271C32.1599 38.7271 32.3599 38.885 32.3599 38.1745C32.3599 37.2271 31.4399 36.635 30.3199 36.635C28.9199 36.635 27.7199 37.8982 27.7199 39.2403ZM45.5599 39.3193V39.8719C45.5599 42.0824 48.1199 42.793 49.5999 41.8456C49.8399 41.6877 50.3999 41.214 50.3999 40.8587C50.3999 40.5824 50.3999 40.8587 50.3199 40.6219C49.8799 40.6614 50.0799 40.7798 49.7199 41.0561C48.6799 41.8851 46.5599 41.3324 46.5599 39.0824C46.5599 38.0561 47.2799 37.1877 48.3599 37.1877C49.2799 37.1877 49.5199 37.9377 49.8399 37.9377C50.1199 37.9377 50.3599 37.5035 50.1199 37.0298C49.9199 36.5956 49.0799 36.635 48.5999 36.635C47.6799 36.635 46.9599 36.9508 46.4799 37.385C45.9999 37.7798 45.5599 38.5298 45.5599 39.3193ZM50.7199 37.385C50.9199 37.5035 51.0399 37.464 51.3999 37.464V40.6219C51.3999 43.2272 54.2799 42.1219 54.2799 41.5693C54.2799 41.1745 53.9999 41.4114 53.8399 41.4903C53.5999 41.6087 53.4799 41.6482 53.1199 41.5693C52.6799 41.4114 52.4799 40.9377 52.4799 40.3456V37.464C54.3599 37.464 54.4799 37.6613 54.2799 36.7929C52.3999 36.7929 52.5199 36.9508 52.4799 36.3192C52.4799 36.0429 52.4799 35.8061 52.2399 35.885C51.9599 36.0034 51.9999 36.635 51.0399 36.9903C50.6799 37.1087 50.7199 36.9903 50.7199 37.385ZM32.8799 37.2271C32.8799 37.6219 33.3599 37.464 33.3599 37.8587C33.3599 38.7666 33.4399 40.8193 33.2799 41.5693C33.0399 41.6087 32.8399 41.6877 32.5599 41.7272V42.1219H35.3199C35.5599 42.1219 35.5199 41.964 35.5599 41.7272C35.3999 41.7272 34.9199 41.6482 34.7999 41.6087C34.5599 41.5693 34.4399 41.4114 34.4399 41.0956V38.4903C34.4399 38.0956 34.6399 37.5429 35.0799 37.5429C35.3999 37.5429 35.7599 37.8587 35.8399 37.8587C37.0799 37.8587 36.6799 35.885 35.0399 36.9113C34.8399 37.0692 34.7199 37.2666 34.4399 37.3061V36.4771C34.0399 36.4771 33.6799 36.7534 33.1999 36.9508C32.9999 37.0298 32.8799 36.9903 32.8799 37.2271ZM21.6399 41.7272V42.1219H25.2399V41.7272C23.6799 41.6877 23.9199 41.1351 23.9199 38.8061C23.2799 38.8061 23.3599 38.8456 22.7999 38.7271C22.7999 39.4771 22.7199 40.0693 22.7199 40.7008C22.7199 41.6087 22.4399 41.6482 21.6399 41.7272Z" fill="#F00F0F"/>
<path fill-rule="evenodd" clip-rule="evenodd" d="M70.4801 46.1087C70.4801 45.2403 71.4801 45.2403 71.4801 46.1087C71.4801 46.8982 70.4801 47.0166 70.4801 46.1087ZM69.8401 48.1219H70.4801V47.0561C72.2401 48.2009 72.7201 44.964 71.2401 44.964C70.4801 44.964 70.8401 45.0824 70.4001 45.2008V44.964H69.8401V48.1219ZM73.7601 45.4377H73.8401C74.0801 45.4377 74.1201 45.6351 74.2001 45.793H73.3601C73.4001 45.5956 73.5201 45.4377 73.7601 45.4377ZM72.7201 45.8719C72.7201 46.5035 72.7201 47.2535 73.9201 47.2535C74.2001 47.2535 74.4801 47.214 74.6801 47.1351L74.6001 46.6614C74.1201 46.7798 73.4001 46.9377 73.3601 46.2666H74.7601C74.7601 45.3982 74.7201 44.964 73.6801 44.964C73.2001 44.964 72.7201 45.4377 72.7201 45.8719ZM61.4801 46.3456C61.4801 47.8061 62.8401 47.0956 62.9201 47.0956L63.5201 47.1745V44.964H62.8801C62.8801 45.714 63.0801 46.7403 62.5201 46.7403C61.9601 46.7403 62.1201 45.5956 62.1201 44.964H61.4801V46.3456ZM80.2401 45.4377H80.3201C80.5601 45.4377 80.6401 45.5956 80.7201 45.793H79.8401C79.8801 45.5956 80.0001 45.4377 80.2401 45.4377ZM79.2401 46.0298C79.2401 47.8061 81.1601 47.2535 81.1601 47.0561C81.1601 46.5035 80.9601 46.7403 80.5201 46.7798C80.1601 46.7798 79.8801 46.6614 79.8401 46.2666H81.3201C81.3201 44.3324 79.2401 44.7272 79.2401 46.0298ZM77.6401 44.964H77.3601V45.5166H77.6401V47.1745H78.2801V45.5166H78.7601V44.964H78.2801L78.3601 44.5693C78.5601 44.4508 78.5601 44.4903 78.9201 44.4903V43.9377C78.3601 43.9377 77.6801 43.8982 77.6401 44.964ZM66.7201 44.5693V44.964H66.4001V45.5166H66.7201C66.7201 46.8982 66.6001 47.2535 67.6401 47.2535C67.9601 47.2535 67.8801 47.0956 67.8801 46.7403C67.2401 46.7403 67.3601 46.6614 67.3601 45.5166H67.8801V44.964H67.3601V44.4114C67.0801 44.4903 67.0001 44.5298 66.7201 44.5693ZM84.5201 44.5693V44.964H84.2401V45.5166H84.5201C84.5201 46.7403 84.4001 47.2535 85.4801 47.2535C85.7601 47.2535 85.7201 47.0956 85.7201 46.7403C85.0801 46.7403 85.4401 46.7798 85.2401 46.6614C85.1201 46.1087 85.1601 46.1482 85.1601 45.5166H85.7201V44.964H85.1601V44.4114C84.9201 44.4903 84.8001 44.5298 84.5201 44.5693ZM64.3601 45.5561C64.3601 46.464 64.9601 46.1087 65.3201 46.5824C65.0401 46.9772 65.0401 46.8193 64.3601 46.6614C64.3201 46.8982 64.0401 47.2535 65.0001 47.2535C66.0001 47.2535 66.2001 46.3456 65.5601 45.9509C65.4001 45.8719 65.1201 45.8324 65.0401 45.714C64.8401 45.5166 65.0401 45.4377 65.2801 45.4377C65.5201 45.4377 65.4001 45.4772 65.7201 45.5166C65.8001 45.3193 65.7601 45.2008 65.8401 45.043C65.5201 45.0035 64.3601 44.6877 64.3601 45.5561ZM81.8801 46.1087C81.8801 46.8587 82.3601 47.2535 83.1201 47.2535C83.4001 47.2535 83.4401 47.214 83.6801 47.1745V46.6614C82.0001 47.0561 82.4401 45.4377 83.2001 45.4377C83.4001 45.4377 83.2801 45.4772 83.6001 45.5166C83.8801 44.8851 83.6401 44.964 82.8801 44.964C82.3201 44.964 81.8801 45.5166 81.8801 46.1087ZM60.0001 46.1877C60.0001 46.9377 59.4001 46.7009 59.1601 46.6614C59.1601 46.9772 59.1201 46.9772 59.0801 47.1745C61.0001 47.6482 60.6401 46.1877 60.6401 44.1745H60.0001V46.1877ZM75.5601 47.1745H76.1601C76.1601 46.0298 76.0001 45.714 76.6001 45.5561C76.8001 45.4772 76.8001 45.793 76.8001 44.964C76.3601 44.964 76.3601 45.0035 76.0801 45.2008V44.964H75.5601V47.1745Z" fill="black"/>
<path fill-rule="evenodd" clip-rule="evenodd" d="M96.88 33.7532C97.08 33.7532 97.08 33.6348 97.08 34.2663C97.08 34.4637 97.08 35.2532 97 35.3716C96.96 35.4506 96.84 35.4506 96.72 35.4506V35.5295H97.44V35.4506C97.16 35.4506 97.16 35.49 97.16 34.8979V34.0295C97.24 34.1479 97.32 34.2663 97.36 34.4242C97.4 34.4637 97.44 34.5427 97.48 34.5821L97.96 35.5295C98 35.569 98 35.49 98.04 35.4506L98.56 34.4242C98.6 34.3848 98.76 34.069 98.76 34.0295V35.2137C98.76 35.4506 98.72 35.4111 98.52 35.4506V35.5295H99.24V35.4506C99 35.4506 99 35.4111 99 35.1742V33.8716C99 33.7137 99.08 33.7532 99.2 33.7532V33.6348H98.76C98.76 33.6348 98.76 33.6742 98.72 33.6742L98.68 33.8321C98.64 33.8716 98.6 33.9506 98.56 34.0295C98.56 34.069 98.52 34.1479 98.48 34.1874C98.44 34.2663 98.44 34.3453 98.4 34.3848C98.32 34.5032 98.28 34.6611 98.2 34.7795C98.2 34.8585 98.16 34.8979 98.12 34.9769C98.12 35.0164 98.04 35.1348 98.04 35.1742L97.28 33.6348H96.88V33.7532Z" fill="#FEFDFD"/>
<path fill-rule="evenodd" clip-rule="evenodd" d="M95.56 33.7532H95.76C95.8 33.7532 95.8 33.8321 95.8 33.8716V34.5821C95.84 34.6216 96 34.5821 96.04 34.5821V33.7137C96.28 33.7137 96.4 33.7137 96.52 33.8321C96.64 33.9111 96.68 34.069 96.68 34.2663C96.64 34.4242 96.56 34.5427 96.4 34.5821C96.2 34.7006 95.68 34.7006 95.44 34.6611C95.4 34.6216 95.32 34.6216 95.28 34.6216C95.36 34.6611 95.52 34.7006 95.6 34.7006C95.76 34.74 95.92 34.74 96.04 34.74C96.4 34.74 96.8 34.7006 96.92 34.3453C96.96 34.2269 96.96 34.1085 96.92 33.99C96.84 33.7927 96.64 33.6742 96.4 33.6348H95.56V33.7532ZM95.56 35.4506V35.5295H96.28V35.4506C96 35.4506 96.04 35.4506 96.04 35.0164V34.819H95.8V35.2137C95.8 35.4506 95.76 35.4111 95.56 35.4506Z" fill="#FEFDFD"/>
<defs>
<filter id="filter0_dd_454_756" x="0" y="7" width="120" height="74" filterUnits="userSpaceOnUse" color-interpolation-filters="sRGB">
<feFlood flood-opacity="0" result="BackgroundImageFix"/>
<feColorMatrix in="SourceAlpha" type="matrix" values="0 0 0 0 0 0 0 0 0 0 0 0 0 0 0 0 0 0 127 0" result="hardAlpha"/>
<feOffset dy="4"/>
<feGaussianBlur stdDeviation="2"/>
<feComposite in2="hardAlpha" operator="out"/>
<feColorMatrix type="matrix" values="0 0 0 0 0 0 0 0 0 0 0 0 0 0 0 0 0 0 0.25 0"/>
<feBlend mode="normal" in2="BackgroundImageFix" result="effect1_dropShadow_454_756"/>
<feColorMatrix in="SourceAlpha" type="matrix" values="0 0 0 0 0 0 0 0 0 0 0 0 0 0 0 0 0 0 127 0" result="hardAlpha"/>
<feOffset dy="4"/>
<feGaussianBlur stdDeviation="2"/>
<feComposite in2="hardAlpha" operator="out"/>
<feColorMatrix type="matrix" values="0 0 0 0 0 0 0 0 0 0 0 0 0 0 0 0 0 0 0.25 0"/>
<feBlend mode="normal" in2="effect1_dropShadow_454_756" result="effect2_dropShadow_454_756"/>
<feBlend mode="normal" in="SourceGraphic" in2="effect2_dropShadow_454_756" result="shape"/>
</filter>
</defs>
</svg>
