<svg width="120" height="81" viewBox="0 0 120 81" fill="none" xmlns="http://www.w3.org/2000/svg">
<g filter="url(#filter0_dd_454_784)">
<rect x="4" y="7" width="112" height="66" rx="6" fill="white"/>
<rect x="4.5" y="7.5" width="111" height="65" rx="5.5" stroke="#130404"/>
</g>
<path d="M50.7677 32.5098V35.4952C50.7677 35.6162 50.8077 35.6431 50.9144 35.6431H52.5681C52.6881 35.6431 52.7281 35.67 52.7281 35.791C52.7148 36.1138 52.7148 36.4365 52.7281 36.7593C52.7281 36.8937 52.6881 36.9072 52.5681 36.9072H50.9144C50.8077 36.9072 50.7677 36.9341 50.7677 37.0551V41.0895C50.7677 41.2508 50.781 41.3988 50.821 41.5601C50.941 42.2863 51.5679 42.8108 52.288 42.8108C52.4481 42.8242 52.6081 42.8242 52.7548 42.8108C52.8348 42.8108 52.8482 42.8108 52.8482 42.8915V44.0883C52.8482 44.1421 52.8482 44.1824 52.7681 44.1959C51.8346 44.2766 50.941 44.169 50.1542 43.5773C49.5541 43.1066 49.3007 42.4477 49.2206 41.7081C49.194 41.4525 49.1806 41.197 49.194 40.9415V37.1089C49.194 36.961 49.154 36.9341 49.0206 36.9341C48.7672 36.9475 48.5138 36.9341 48.2604 36.9341C48.1671 36.9341 48.1404 36.9072 48.1404 36.8131V35.7776C48.1404 35.6834 48.1804 35.6565 48.2604 35.67C48.5138 35.67 48.7672 35.6565 49.0206 35.67C49.194 35.6834 49.2473 35.6431 49.2473 35.4548C49.234 34.5538 49.2473 33.6394 49.2473 32.7384C49.2473 32.6711 49.2606 32.6173 49.2606 32.5501L50.7677 32.5098Z" fill="#284F9B"/>
<path d="M39.3251 32.5098C39.4584 32.5367 39.4851 32.6308 39.4851 32.7519C39.4718 33.0746 39.4718 33.4108 39.4851 33.7336C39.4851 33.8546 39.4718 33.8949 39.3384 33.8815C39.005 33.8411 38.6716 33.8815 38.3648 33.9756C37.7247 34.2177 37.3246 34.8497 37.3913 35.5356C37.4046 35.6431 37.4713 35.6162 37.5246 35.6162H39.1384C39.2717 35.6162 39.3117 35.6566 39.3117 35.7911C39.2984 36.1004 39.2984 36.4097 39.3117 36.719C39.3117 36.8534 39.2851 36.8938 39.1517 36.8803C38.6316 36.8669 38.0981 36.8803 37.5646 36.8803C37.4179 36.8803 37.3779 36.9072 37.3779 37.0552C37.3779 39.3547 37.3779 41.6543 37.3779 43.9404C37.3779 44.2094 37.4179 44.169 37.1512 44.169C36.7778 44.169 36.4044 44.1556 36.0443 44.169C35.8709 44.169 35.8576 44.1152 35.8576 43.9673V37.0955C35.8576 36.9072 35.8176 36.8534 35.6308 36.8669C35.4041 36.8803 35.1774 36.8669 34.9507 36.8669C34.8707 36.8669 34.844 36.8534 34.844 36.7593V35.7104C34.844 35.6297 34.8707 35.6028 34.9507 35.6028H35.6975C35.8176 35.6028 35.8576 35.5759 35.8576 35.4549C35.8442 34.9573 35.9376 34.4732 36.1376 34.016C36.5244 33.1553 37.2179 32.725 38.1114 32.5501C38.2181 32.5501 38.3115 32.5233 38.4048 32.4829L39.3251 32.5098Z" fill="#284F9B"/>
<path d="M46.4732 41.883C46.6733 42.2326 46.8466 42.5688 47.0467 42.8916C47.1 42.9454 47.1 43.0395 47.0467 43.0933C47.0333 43.1067 47.02 43.1202 46.9933 43.1336C46.4199 43.5909 45.753 43.9136 45.0462 44.0615C43.6992 44.3574 42.4322 44.1691 41.312 43.3353C40.3117 42.5957 39.805 41.5602 39.6983 40.3365C39.5782 39.3413 39.805 38.3193 40.3117 37.4587C40.9652 36.3963 41.9388 35.8046 43.1658 35.6567C43.9259 35.5356 44.6995 35.6567 45.3796 35.9929C46.3932 36.5173 46.9133 37.3914 47.14 38.4807C47.2334 38.9648 47.2467 39.4489 47.2067 39.9465C47.1934 40.081 47.1534 40.1213 47.0067 40.1213H41.4854C41.3253 40.1213 41.2853 40.1617 41.2986 40.323C41.3787 41.7082 42.4989 42.7974 43.8726 42.8243C44.7395 42.8512 45.593 42.5688 46.2865 42.0309C46.3398 41.9906 46.4065 41.9368 46.4732 41.883Z" fill="#284F9B"/>
<path d="M32.0966 42.5956C32.0033 42.7435 31.9099 42.9049 31.8032 43.0393C31.1364 43.9134 30.2429 44.2631 29.1626 44.169C28.5891 44.1286 28.0423 43.9134 27.6022 43.5638C26.5887 42.73 26.4419 41.2104 27.2688 40.1884C27.3888 40.0405 27.5222 39.906 27.6689 39.7984C28.2691 39.3546 28.9492 39.1664 29.6694 39.0319C30.3762 38.9109 31.0964 38.8705 31.8166 38.884C31.9499 38.884 31.9766 38.8436 31.9766 38.7226C31.9766 38.5478 31.9499 38.3595 31.9233 38.1847C31.7632 37.4316 31.2564 37.0147 30.4562 36.9609C29.616 36.9206 28.7892 37.1492 28.0957 37.6333C27.949 37.7275 27.909 37.7006 27.8423 37.5661C27.6956 37.2702 27.5355 36.9878 27.3622 36.7054C27.3088 36.6113 27.3222 36.5575 27.4022 36.5037C28.0823 36.0465 28.8692 35.7506 29.6827 35.6565C30.3762 35.5489 31.0831 35.6162 31.7365 35.8448C32.7501 36.2213 33.2836 36.9878 33.4569 38.0368C33.5103 38.3326 33.5236 38.615 33.5236 38.9109V44.0076C33.5236 44.169 33.4836 44.2093 33.3369 44.1958C32.9768 44.1824 32.6034 44.1824 32.2433 44.1958C32.0966 44.1958 32.07 44.1421 32.07 44.021C32.0966 43.5504 32.0833 43.0797 32.0966 42.5956Z" fill="#284F9B"/>
<path d="M52.9548 35.6297H54.6086C54.7153 35.6297 54.7153 35.7103 54.7419 35.7776C55.3021 37.2299 55.8489 38.6823 56.3957 40.1347C56.6624 40.7667 56.8891 41.4257 57.0758 42.0846C57.0891 42.1115 57.1025 42.1384 57.1158 42.1653C57.3692 41.1164 57.7826 40.1616 58.1294 39.1664C58.5428 38.0368 58.9563 36.9072 59.3697 35.7641C59.4097 35.6566 59.4497 35.6162 59.5697 35.6162C60.0765 35.6297 60.5833 35.6162 61.1034 35.6162C61.0101 35.8583 60.9167 36.0734 60.8367 36.302C59.6498 39.3412 58.4495 42.3804 57.2492 45.4331C56.9958 46.092 56.609 46.6568 55.9956 47.0199C55.0487 47.5713 54.1018 47.5175 53.1549 46.9796C53.0482 46.9258 53.0482 46.872 53.1015 46.7779C53.2482 46.4686 53.3949 46.1727 53.515 45.85C53.5683 45.729 53.6083 45.7155 53.715 45.7827C54.4352 46.2265 55.1287 46.092 55.6355 45.46C55.7555 45.3121 55.8489 45.1507 55.9289 44.9893C56.0756 44.6666 56.2089 44.3304 56.3556 44.0076C56.3823 43.9404 56.3823 43.8597 56.3423 43.7925C55.4888 41.7753 54.6486 39.7581 53.795 37.741C53.5283 37.1089 53.2616 36.4634 52.9948 35.8314C52.9682 35.7507 52.9548 35.6969 52.9548 35.6297Z" fill="#284F9B"/>
<path d="M25.1482 37.7142C24.5347 37.2031 23.7479 36.9476 22.9477 37.0149C22.7076 37.0283 22.4676 37.0956 22.2542 37.23C21.8541 37.4452 21.694 37.9562 21.9208 38.3596C21.9741 38.4538 22.0408 38.5479 22.1342 38.6152C22.3875 38.8169 22.681 38.9782 22.9744 39.0858C23.4678 39.301 23.9613 39.4758 24.4414 39.7179C24.8015 39.8927 25.1349 40.1213 25.4149 40.4037C26.2018 41.2778 26.1484 42.636 25.2816 43.4295C25.2282 43.4698 25.1749 43.5236 25.1215 43.5639C24.6281 43.9405 24.0279 44.1691 23.4011 44.196C22.2008 44.3036 21.0139 43.927 20.0937 43.1336C19.9736 43.0395 19.9736 42.9588 20.067 42.8378C20.267 42.5554 20.4538 42.2864 20.6405 42.004C20.7071 41.9099 20.7338 41.9099 20.8272 41.9771C21.4807 42.5554 22.3209 42.8647 23.1877 42.8243C23.4678 42.8109 23.7212 42.7302 23.9613 42.5823C24.5081 42.2192 24.5481 41.5737 24.0279 41.1568C23.7879 40.9685 23.5212 40.834 23.2411 40.713C22.761 40.4978 22.2675 40.323 21.8007 40.0944C21.5073 39.9465 21.2273 39.7717 20.9739 39.5565C20.0937 38.8169 19.9603 37.4855 20.7071 36.598C20.8138 36.477 20.9339 36.3559 21.0672 36.2618C21.5473 35.8987 22.1342 35.697 22.721 35.6566C23.6412 35.576 24.5214 35.7104 25.3349 36.1946C25.8017 36.477 25.8017 36.4904 25.5483 36.9611L25.1482 37.7142Z" fill="#284F9B"/>
<path d="M43.4991 38.9649H41.5253C41.3653 38.9649 41.3253 38.9381 41.3653 38.7632C41.7387 37.1226 43.219 36.6519 44.286 36.9612C45.0995 37.1898 45.4863 37.795 45.6063 38.5884C45.6596 38.9515 45.6596 38.9515 45.2862 38.9515L43.4991 38.9649Z" fill="white"/>
<path d="M31.3231 40.0811H31.8832C31.9632 40.0811 32.0032 40.0945 32.0032 40.2021C32.0032 41.1434 31.7098 41.9503 30.9496 42.5554C30.4428 42.9723 29.736 43.0799 29.1225 42.811C28.6691 42.6496 28.3624 42.2461 28.3223 41.762C28.2557 41.2645 28.5091 40.7803 28.9492 40.5517C29.4026 40.2828 29.8961 40.2021 30.4028 40.1348C30.7229 40.0945 31.0163 40.0811 31.3231 40.0811Z" fill="white"/>
<path d="M70.079 40.0675C70.079 39.5834 70.0123 39.1127 69.8923 38.6555C69.2788 36.6114 67.9318 35.3339 65.878 34.8094C65.5713 34.7287 65.2645 34.6884 64.9578 34.6749C64.8911 34.6749 64.8911 34.6346 64.8911 34.5942V32.6309H64.9445C64.9845 32.6443 65.0378 32.6443 65.0778 32.6309H65.1845C65.3045 32.6578 65.4379 32.6443 65.5713 32.6578C66.2114 32.7384 66.8516 32.8864 67.4517 33.1284C68.2252 33.4377 68.9587 33.8815 69.5856 34.4329C70.3858 35.1321 71.0392 35.9928 71.4793 36.9745C71.8128 37.7007 72.0261 38.4672 72.1062 39.2472C72.1195 39.3682 72.1062 39.4892 72.1328 39.6103V39.7178C72.1195 39.7582 72.1195 39.812 72.1328 39.8523V40.0809C72.0928 40.1078 72.0528 40.1213 72.0128 40.1078H70.2257C70.159 40.1078 70.1057 40.1078 70.079 40.0675Z" fill="#284F9B"/>
<path d="M70.079 40.0674H72.1195V40.2691C72.1062 40.3094 72.1195 40.3498 72.1062 40.3767C72.0928 40.4036 72.0928 40.4574 72.1195 40.4843V40.5381C72.0928 40.6725 72.1062 40.807 72.0928 40.9415C72.0395 41.3718 71.9461 41.8021 71.8261 42.2325C71.626 42.9183 71.3193 43.5638 70.9192 44.1555C70.7058 44.4917 70.4524 44.801 70.1857 45.0969C69.7056 45.6213 69.1588 46.0785 68.5587 46.4416C67.6384 47.0064 66.6115 47.3561 65.5313 47.4771C65.4246 47.4906 65.3045 47.4771 65.1979 47.504H65.1578C65.1178 47.4906 65.0778 47.504 65.0511 47.4906C65.0111 47.4906 64.9711 47.4771 64.9445 47.504H64.8911V45.5406C64.8911 45.4734 64.9045 45.4599 64.9711 45.4599C67.3717 45.3524 69.4789 43.5504 69.9723 41.1835C70.039 40.8339 70.079 40.4574 70.079 40.0674Z" fill="#009BD0"/>
<path d="M65.0643 32.6309C65.0243 32.6578 64.9709 32.6578 64.9309 32.6309H65.0643Z" fill="#5673AF"/>
<path d="M72.1194 39.8523C72.0927 39.8119 72.0927 39.7581 72.1194 39.7178V39.8523Z" fill="#6A83B9"/>
<path d="M72.0927 40.3903C72.0927 40.35 72.0794 40.3096 72.106 40.2827V40.3903C72.106 40.4037 72.106 40.4037 72.0927 40.3903Z" fill="#4CB4DC"/>
<path d="M72.0928 40.3901H72.1061V40.4977C72.0794 40.4708 72.1061 40.4305 72.0928 40.3901Z" fill="#77C5E5"/>
<path d="M64.9309 47.5173C64.9709 47.4904 65.0109 47.5039 65.0376 47.5039V47.5173H64.9309Z" fill="#40B0DB"/>
<path d="M65.0376 47.5173V47.5039C65.0776 47.5039 65.1176 47.477 65.1443 47.5173H65.0376Z" fill="#87CDE8"/>
<path d="M63.1707 40.0807V39.5025V37.1357V37.0146L63.6108 37.3643C64.731 38.2518 65.8646 39.1394 66.9849 40.027C67.0116 40.0404 67.0382 40.0538 67.0382 40.0807C66.9982 40.1076 66.9449 40.1211 66.8915 40.1076H63.304C63.264 40.1211 63.2107 40.1076 63.1707 40.0807Z" fill="#284F9B"/>
<path d="M63.1706 40.0811H67.0382C66.9181 40.1886 66.7981 40.2962 66.6647 40.3904C65.5445 41.2779 64.4109 42.1655 63.2773 43.053C63.2506 43.0799 63.2106 43.0934 63.1839 43.1203C63.1572 43.0934 63.1706 43.0799 63.1706 43.0665V40.1214C63.1706 40.0945 63.1706 40.0811 63.1706 40.0811Z" fill="#009BD0"/>
<path d="M73.7732 47.3963C73.8665 46.8449 73.9599 46.307 74.0666 45.7556C74.44 43.7385 74.8134 41.7347 75.2002 39.7176C75.4403 38.3997 75.6937 37.0953 75.9337 35.7774C75.9604 35.6698 75.9871 35.6294 76.1071 35.6294C76.4805 35.6429 76.8673 35.6429 77.2407 35.6294C77.3874 35.6294 77.4007 35.6832 77.3741 35.8043C77.3074 36.2346 77.2007 36.6649 77.0806 37.0818C77.174 37.0684 77.2007 37.0011 77.2407 36.9473C78.1609 35.737 79.7746 35.2932 81.1883 35.8581C82.0818 36.2211 82.5886 36.9339 82.802 37.8483C83.2288 39.6638 82.642 42.0844 80.8549 43.3888C79.8813 44.0881 78.8144 44.3705 77.6274 44.0478C77.0006 43.8864 76.4672 43.4561 76.1871 42.8644C76.1738 42.8375 76.1471 42.8106 76.1338 42.7702H76.1204C75.867 44.3033 75.5603 45.8363 75.2669 47.3694L73.7732 47.3963Z" fill="#009BD0"/>
<path d="M91.0707 47.3967C90.964 47.3429 90.8439 47.3026 90.7239 47.3026C90.4439 47.2219 90.1638 47.1009 89.9104 46.9395C89.8304 46.8857 89.817 46.8453 89.8704 46.7647C90.0571 46.4688 90.2571 46.173 90.4439 45.8637C90.4972 45.783 90.5239 45.7695 90.6172 45.8233C91.204 46.173 91.9509 46.1057 92.4577 45.635C92.7111 45.4199 92.9244 45.1509 93.0978 44.8551C93.2579 44.5861 93.4312 44.3037 93.6046 44.0348C93.658 43.9541 93.6846 43.8465 93.6446 43.7389C93.0445 41.1031 92.431 38.4539 91.8175 35.8047C91.7908 35.6568 91.7908 35.6164 91.9642 35.6164C92.391 35.6299 92.8177 35.6164 93.2312 35.6164C93.3379 35.6164 93.3912 35.6299 93.4179 35.7644C93.7913 37.6605 94.1647 39.5701 94.5382 41.4797C94.5915 41.7486 94.6182 42.0176 94.6582 42.3403C94.8849 41.8562 95.1116 41.4259 95.3517 40.9956C96.2986 39.2608 97.2455 37.526 98.1924 35.7913C98.2457 35.6702 98.3524 35.603 98.4858 35.6164C98.9926 35.6299 99.4993 35.6164 99.9928 35.6164C100.019 35.6837 99.9661 35.724 99.9395 35.7644C98.0323 39.0187 96.1119 42.2865 94.2048 45.5409C93.7913 46.2536 93.2445 46.8319 92.471 47.1815C92.2576 47.2757 92.0176 47.3026 91.8042 47.3967H91.0707Z" fill="#009BD0"/>
<path d="M88.4833 42.6089C88.3899 42.73 88.3099 42.8375 88.2299 42.9317C87.603 43.6579 86.8295 44.142 85.8426 44.1958C85.2158 44.2496 84.589 44.0613 84.0689 43.6848C83.362 43.1603 83.122 42.2593 83.4287 41.291C83.6554 40.5649 84.1356 40.0673 84.7757 39.7177C85.4559 39.3546 86.2027 39.1125 86.9629 39.0184C87.603 38.9242 88.2565 38.8839 88.91 38.8973C89.0434 38.8973 89.0967 38.857 89.1101 38.7225C89.1501 38.4536 89.1501 38.1846 89.1234 37.9157C89.0434 37.3777 88.6566 37.0415 88.0698 36.9743C87.1363 36.8667 86.3094 37.1626 85.5092 37.6064C85.2958 37.7274 85.2958 37.7274 85.2158 37.4853C85.1225 37.1895 85.0158 36.8802 84.9224 36.5843C84.8957 36.5036 84.8957 36.4633 84.9758 36.4229C86.1894 35.7775 87.4697 35.4547 88.8433 35.7102C89.8703 35.8985 90.4971 36.5305 90.6838 37.5122C90.7505 38.0232 90.7371 38.5477 90.6171 39.0453C90.297 40.7128 89.9769 42.3669 89.6569 44.0344C89.6302 44.1554 89.5902 44.1958 89.4702 44.1958C89.0967 44.1823 88.71 44.1958 88.3366 44.1958C88.2032 44.1958 88.1899 44.1689 88.2165 44.0344C88.2965 43.5772 88.3899 43.1065 88.4833 42.6089Z" fill="#009BD0"/>
<path d="M76.5737 40.6459C76.6137 39.5028 77.0005 38.4808 77.8674 37.6874C78.3475 37.2167 79.001 36.9746 79.6678 37.0015C80.468 37.0419 81.0415 37.4991 81.2415 38.2656C81.5616 39.4625 81.2015 41.3183 79.8678 42.2731C79.4011 42.6362 78.8276 42.811 78.2408 42.7841C77.3873 42.7303 76.7871 42.1789 76.6271 41.2914C76.6004 41.0762 76.5737 40.8611 76.5737 40.6459Z" fill="white"/>
<path d="M88.23 40.0542H88.7635C88.8435 40.0542 88.8702 40.0811 88.8435 40.1618C88.6568 41.1166 88.11 41.9503 87.3231 42.5151C86.923 42.7975 86.4296 42.932 85.9361 42.8782C84.8559 42.7707 84.6692 41.8293 85.0426 41.1435C85.216 40.8611 85.456 40.6459 85.7494 40.5114C86.2562 40.2828 86.803 40.1349 87.3498 40.0945C87.6565 40.0676 87.9499 40.0542 88.23 40.0542Z" fill="white"/>
<defs>
<filter id="filter0_dd_454_784" x="0" y="7" width="120" height="74" filterUnits="userSpaceOnUse" color-interpolation-filters="sRGB">
<feFlood flood-opacity="0" result="BackgroundImageFix"/>
<feColorMatrix in="SourceAlpha" type="matrix" values="0 0 0 0 0 0 0 0 0 0 0 0 0 0 0 0 0 0 127 0" result="hardAlpha"/>
<feOffset dy="4"/>
<feGaussianBlur stdDeviation="2"/>
<feComposite in2="hardAlpha" operator="out"/>
<feColorMatrix type="matrix" values="0 0 0 0 0 0 0 0 0 0 0 0 0 0 0 0 0 0 0.25 0"/>
<feBlend mode="normal" in2="BackgroundImageFix" result="effect1_dropShadow_454_784"/>
<feColorMatrix in="SourceAlpha" type="matrix" values="0 0 0 0 0 0 0 0 0 0 0 0 0 0 0 0 0 0 127 0" result="hardAlpha"/>
<feOffset dy="4"/>
<feGaussianBlur stdDeviation="2"/>
<feComposite in2="hardAlpha" operator="out"/>
<feColorMatrix type="matrix" values="0 0 0 0 0 0 0 0 0 0 0 0 0 0 0 0 0 0 0.25 0"/>
<feBlend mode="normal" in2="effect1_dropShadow_454_784" result="effect2_dropShadow_454_784"/>
<feBlend mode="normal" in="SourceGraphic" in2="effect2_dropShadow_454_784" result="shape"/>
</filter>
</defs>
</svg>
