<svg width="32" height="32" viewBox="0 0 32 32" fill="none" xmlns="http://www.w3.org/2000/svg">
<g clip-path="url(#clip0_454_6)">
<path d="M26.4207 14.1376H21.9474C22.1731 13.858 22.2959 13.5127 22.2959 13.1484C22.2959 12.7267 22.1317 12.3302 21.8336 12.0321L19.4159 9.6145C19.2329 9.4315 18.9361 9.4315 18.753 9.6145C18.5699 9.79755 18.5699 10.0944 18.753 10.2775L21.1706 12.6951C21.2917 12.8162 21.3584 12.9772 21.3584 13.1484C21.3584 13.3196 21.2917 13.4807 21.1706 13.6017L13.6009 21.1714C13.4798 21.2925 13.3188 21.3592 13.1476 21.3592C12.9764 21.3592 12.8153 21.2925 12.6943 21.1714L5.12455 13.6017C4.87457 13.3517 4.87457 12.945 5.12455 12.695L12.6943 5.12528C12.8153 5.0042 12.9764 4.9375 13.1476 4.9375C13.3188 4.9375 13.4798 5.0042 13.6009 5.12528L15.7699 7.29423C15.953 7.47728 16.2497 7.47728 16.4328 7.29423C16.6159 7.11119 16.6159 6.81437 16.4328 6.63128L14.2639 4.46238C13.9657 4.1642 13.5693 4 13.1476 4C12.7259 4 12.3295 4.1642 12.0314 4.46238L4.4616 12.0321C3.84613 12.6476 3.84613 13.6491 4.4616 14.2646L12.0313 21.8343C12.3295 22.1325 12.7259 22.2967 13.1475 22.2967C13.5119 22.2967 13.8573 22.1738 14.1368 21.9482V26.4214C14.1368 27.2919 14.8449 28 15.7154 28H26.4206C27.291 28 27.9992 27.2919 27.9992 26.4214V15.7162C27.9993 14.8458 27.2911 14.1376 26.4207 14.1376ZM27.0618 26.4214C27.0618 26.7749 26.7741 27.0625 26.4207 27.0625H15.7154C15.362 27.0625 15.0743 26.7749 15.0743 26.4214V21.0238L21.0231 15.0751H26.4207C26.7741 15.0751 27.0618 15.3627 27.0618 15.7162V26.4214Z" fill="#FFF72E"/>
<path d="M20.5 19C19.6729 19 19 19.6729 19 20.5C19 21.3271 19.6729 22 20.5 22C21.3271 22 22 21.3271 22 20.5C22 19.6729 21.3271 19 20.5 19ZM20.5 21.1267C20.1544 21.1267 19.8733 20.8456 19.8733 20.5C19.8733 20.1544 20.1544 19.8733 20.5 19.8733C20.8456 19.8733 21.1267 20.1544 21.1267 20.5C21.1267 20.8456 20.8456 21.1267 20.5 21.1267Z" fill="#FFF72E"/>
<path d="M14.5606 12.4389C13.9756 11.8537 13.0238 11.8537 12.4388 12.4389C11.8537 13.024 11.8537 13.976 12.4388 14.5612C12.7313 14.8537 13.1154 15 13.4997 15C13.8838 15 14.2681 14.8537 14.5605 14.5612C14.8439 14.2777 15 13.9008 15 13.5C15 13.0992 14.8439 12.7223 14.5606 12.4389ZM13.9429 13.9434C13.6985 14.1879 13.3008 14.1879 13.0564 13.9434C12.812 13.6989 12.812 13.3011 13.0564 13.0567C13.1786 12.9344 13.3392 12.8733 13.4997 12.8733C13.6602 12.8733 13.8207 12.9344 13.9429 13.0567C14.0613 13.1751 14.1265 13.3325 14.1265 13.5C14.1266 13.6675 14.0613 13.825 13.9429 13.9434Z" fill="#FFF72E"/>
<path d="M12.4388 16.4388C11.8537 17.024 11.8537 17.976 12.4388 18.5612C12.7313 18.8537 13.1154 19 13.4997 19C13.8838 19 14.2681 18.8537 14.5605 18.5612C14.8439 18.2777 15 17.9008 15 17.5C15 17.0991 14.8439 16.7222 14.5606 16.4388C13.9756 15.8537 13.0238 15.8537 12.4388 16.4388ZM14.1266 17.5C14.1266 17.6675 14.0614 17.825 13.9429 17.9434C13.6985 18.1879 13.3008 18.1879 13.0564 17.9434C12.812 17.6989 12.812 17.3011 13.0564 17.0566C13.1786 16.9344 13.3392 16.8733 13.4997 16.8733C13.6602 16.8733 13.8207 16.9344 13.9429 17.0566C14.0613 17.1751 14.1266 17.3325 14.1266 17.5Z" fill="#FFF72E"/>
<path d="M14.5606 7.43885C13.9756 6.85372 13.0238 6.85372 12.4388 7.43885C11.8537 8.02399 11.8537 8.97602 12.4388 9.56116C12.7313 9.85375 13.1154 10 13.4997 10C13.8838 10 14.2681 9.85366 14.5605 9.56116C14.8439 9.27774 15 8.90084 15 8.50001C15 8.09917 14.8439 7.72227 14.5606 7.43885ZM13.9429 8.94339C13.6985 9.18789 13.3008 9.18789 13.0564 8.94339C12.812 8.69894 12.812 8.30112 13.0564 8.05666C13.1786 7.93444 13.3392 7.87328 13.4997 7.87328C13.6602 7.87328 13.8207 7.93439 13.9429 8.05666C14.0613 8.17509 14.1265 8.33252 14.1265 8.50005C14.1266 8.66749 14.0613 8.82496 13.9429 8.94339Z" fill="#FFF72E"/>
<path d="M7.43885 12.4388C6.85372 13.024 6.85372 13.976 7.43885 14.5612C7.7314 14.8537 8.11572 15 8.5 15C8.88428 15 9.2686 14.8537 9.56115 14.5612C10.1463 13.976 10.1463 13.024 9.56115 12.4388C8.97606 11.8537 8.02399 11.8537 7.43885 12.4388ZM8.94338 13.9434C8.69893 14.1879 8.30111 14.1879 8.05666 13.9434C7.81217 13.6989 7.81217 13.3011 8.05666 13.0566C8.17889 12.9344 8.33946 12.8733 8.5 12.8733C8.66053 12.8733 8.82116 12.9344 8.94334 13.0566C9.18783 13.3011 9.18783 13.6989 8.94338 13.9434Z" fill="#FFF72E"/>
<path d="M16.4388 12.4388C15.8537 13.024 15.8537 13.976 16.4388 14.5612C16.7314 14.8538 17.1156 15 17.5 15C17.8842 15 18.2686 14.8537 18.5612 14.5612C19.1463 13.976 19.1463 13.024 18.5611 12.4388C17.976 11.8537 17.024 11.8537 16.4388 12.4388ZM17.9434 13.9434C17.6989 14.1879 17.3011 14.188 17.0566 13.9434C16.8122 13.699 16.8122 13.3011 17.0566 13.0567C17.1789 12.9344 17.3394 12.8733 17.5 12.8733C17.6605 12.8733 17.8212 12.9344 17.9434 13.0567C18.1878 13.3011 18.1878 13.699 17.9434 13.9434Z" fill="#FFF72E"/>
<path d="M17.5 9C17.7761 9 18 8.77614 18 8.5C18 8.22386 17.7761 8 17.5 8C17.2239 8 17 8.22386 17 8.5C17 8.77614 17.2239 9 17.5 9Z" fill="#FFF72E"/>
</g>
<defs>
<clipPath id="clip0_454_6">
<rect width="24" height="24" fill="white" transform="translate(4 4)"/>
</clipPath>
</defs>
</svg>
