<svg width="32" height="32" viewBox="0 0 32 32" fill="none" xmlns="http://www.w3.org/2000/svg">
<g clip-path="url(#clip0_454_21)">
<path d="M26.1213 6H5.87865C4.84276 6 4 6.83591 4 7.86337V18.3016C4 19.329 4.84276 20.1649 5.87865 20.1649H11.1533V25.5341C11.1533 25.7914 11.3636 26 11.623 26H20.3923C20.6517 26 20.862 25.7914 20.862 25.5341V20.1649H26.1213C27.1572 20.1649 28 19.329 28 18.3016V7.86337C28 6.83591 27.1572 6 26.1213 6ZM19.9226 13.5392V22.5776C18.6301 22.7601 17.6074 23.7826 17.4353 25.0683H14.5828C14.4106 23.7817 13.3865 22.7587 12.0927 22.5772V13.5392H19.9226ZM12.0926 23.5224C12.8677 23.6848 13.4775 24.2962 13.6317 25.0683H12.0926V23.5224ZM18.3864 25.0683C18.5404 24.2971 19.1489 23.6864 19.9226 23.523V25.0683H18.3864ZM27.0606 18.3016C27.0606 18.8153 26.6393 19.2332 26.1213 19.2332H20.8619V18.2061H23.726C24.7619 18.2061 25.6046 17.3702 25.6046 16.3427V9.82223C25.6046 8.79477 24.7619 7.95886 23.726 7.95886H18.1124C17.853 7.95886 17.6427 8.16743 17.6427 8.42473C17.6427 8.68198 17.853 8.89059 18.1124 8.89059H23.726C24.244 8.89059 24.6653 9.30852 24.6653 9.82227V16.3427C24.6653 16.8565 24.244 17.2744 23.726 17.2744H20.8619V13.5393H23.3111C23.5705 13.5393 23.7808 13.3307 23.7808 13.0734C23.7808 12.8161 23.5706 12.6076 23.3111 12.6076H8.68885C8.42944 12.6076 8.21916 12.8161 8.21916 13.0734C8.21916 13.3307 8.42944 13.5393 8.68885 13.5393H11.1533V17.2744H8.27396C7.75604 17.2744 7.33463 16.8565 7.33463 16.3427V9.82223C7.33463 9.30847 7.75604 8.89054 8.27396 8.89054H13.8876C14.147 8.89054 14.3573 8.68198 14.3573 8.42468C14.3573 8.16743 14.147 7.95882 13.8876 7.95882H8.27396C7.23807 7.95882 6.39531 8.79472 6.39531 9.82218V16.3427C6.39531 17.3701 7.23807 18.206 8.27396 18.206H11.1533V19.2332H5.87865C5.36073 19.2332 4.93933 18.8153 4.93933 18.3015V7.86337C4.93933 7.34961 5.36073 6.93168 5.87865 6.93168H26.1213C26.6392 6.93168 27.0606 7.34961 27.0606 7.86337V18.3016H27.0606Z" fill="#FFF72E"/>
<path d="M15.5 21C16.8785 21 18 19.8785 18 18.5C18 17.1215 16.8785 16 15.5 16C14.1215 16 13 17.1215 13 18.5C13 19.8785 14.1215 21 15.5 21ZM15.5 16.8628C16.4028 16.8628 17.1372 17.5973 17.1372 18.5C17.1372 19.4028 16.4027 20.1372 15.5 20.1372C14.5972 20.1372 13.8628 19.4027 13.8628 18.5C13.8628 17.5973 14.5972 16.8628 15.5 16.8628Z" fill="#FFF72E"/>
<path d="M16.5 9C16.7761 9 17 8.77614 17 8.5C17 8.22386 16.7761 8 16.5 8C16.2239 8 16 8.22386 16 8.5C16 8.77614 16.2239 9 16.5 9Z" fill="#FFF72E"/>
</g>
<defs>
<clipPath id="clip0_454_21">
<rect width="24" height="24" fill="white" transform="translate(4 4)"/>
</clipPath>
</defs>
</svg>
